<svg width="176" height="69" viewBox="0 0 176 69" fill="none" xmlns="http://www.w3.org/2000/svg">
<rect width="176" height="69" rx="3" fill="#303639"/>
<g clip-path="url(#clip0_389_2536)">
<path d="M40.0871 33.8131L26.2919 19.9795L43.8439 30.0563L40.0871 33.8131ZM22.6903 19.1667C21.8775 19.5923 21.3335 20.3667 21.3335 21.3747V48.9587C21.3335 49.9667 21.8775 50.7411 22.6903 51.1667L38.7335 35.1635L22.6903 19.1667ZM49.2711 33.2691L45.5895 31.1379L41.4823 35.1699L45.5895 39.2019L49.3463 37.0707C50.4711 36.1763 50.4711 34.1635 49.2711 33.2691ZM26.2919 50.3603L43.8439 40.2835L40.0871 36.5267L26.2919 50.3603Z" fill="white"/>
</g>
<path d="M74.4375 21.5H75.4375C75.1406 19.9531 73.8438 18.8906 72.1562 18.8906C70.1055 18.8906 68.6563 20.4688 68.6563 23C68.6563 25.5312 70.0938 27.1094 72.2188 27.1094C74.125 27.1094 75.4844 25.8398 75.4844 23.8594V23H72.4375V23.8594H74.5469C74.5195 25.2969 73.5742 26.2031 72.2188 26.2031C70.7344 26.2031 69.5938 25.0781 69.5938 23C69.5938 20.9219 70.7344 19.7969 72.1562 19.7969C73.3125 19.7969 74.0977 20.4492 74.4375 21.5ZM79.5342 27.125C80.7529 27.125 81.6436 26.5156 81.9248 25.6094L81.0342 25.3594C80.7998 25.9844 80.2568 26.2969 79.5342 26.2969C78.4521 26.2969 77.7061 25.5977 77.6631 24.3125H82.0186V23.9219C82.0186 21.6875 80.6904 20.9219 79.4404 20.9219C77.8154 20.9219 76.7373 22.2031 76.7373 24.0469C76.7373 25.8906 77.7998 27.125 79.5342 27.125ZM77.6631 23.5156C77.7256 22.582 78.3857 21.75 79.4404 21.75C80.4404 21.75 81.0811 22.5 81.0811 23.5156H77.6631ZM86.0303 21H84.749V19.5625H83.8271V21H82.9209V21.7812H83.8271V25.5312C83.8271 26.5781 84.6709 27.0781 85.4521 27.0781C85.7959 27.0781 86.0146 27.0156 86.1396 26.9687L85.9521 26.1406C85.874 26.1562 85.749 26.1875 85.5459 26.1875C85.1396 26.1875 84.749 26.0625 84.749 25.2812V21.7812H86.0303V21ZM90.5107 27H91.4326V21H90.5107V27ZM90.9795 20C91.3389 20 91.6357 19.7188 91.6357 19.375C91.6357 19.0313 91.3389 18.75 90.9795 18.75C90.6201 18.75 90.3232 19.0313 90.3232 19.375C90.3232 19.7188 90.6201 20 90.9795 20ZM95.7305 21H94.4492V19.5625H93.5273V21H92.6211V21.7812H93.5273V25.5312C93.5273 26.5781 94.3711 27.0781 95.1523 27.0781C95.4961 27.0781 95.7148 27.0156 95.8398 26.9687L95.6523 26.1406C95.5742 26.1562 95.4492 26.1875 95.2461 26.1875C94.8398 26.1875 94.4492 26.0625 94.4492 25.2812V21.7812H95.7305V21ZM101.133 23.3906C101.133 22.3437 101.781 21.75 102.664 21.75C103.52 21.75 104.039 22.3086 104.039 23.25V27H104.961V23.1875C104.961 21.6562 104.145 20.9219 102.93 20.9219C102.023 20.9219 101.461 21.3281 101.18 21.9375H101.102V21H100.211V27H101.133V23.3906ZM109.083 27.125C110.708 27.125 111.802 25.8906 111.802 24.0312C111.802 22.1562 110.708 20.9219 109.083 20.9219C107.458 20.9219 106.364 22.1562 106.364 24.0312C106.364 25.8906 107.458 27.125 109.083 27.125ZM109.083 26.2969C107.849 26.2969 107.286 25.2344 107.286 24.0312C107.286 22.8281 107.849 21.75 109.083 21.75C110.317 21.75 110.88 22.8281 110.88 24.0312C110.88 25.2344 110.317 26.2969 109.083 26.2969ZM114.364 27H115.271L116.583 22.3906H116.677L117.989 27H118.896L120.724 21H119.755L118.458 25.5781H118.396L117.13 21H116.146L114.864 25.5938H114.802L113.505 21H112.536L114.364 27Z" fill="white"/>
<path d="M75.8253 41.0696H77.7045C77.3913 39.071 75.6612 37.679 73.4091 37.679C70.7443 37.679 68.7457 39.6378 68.7457 42.919C68.7457 46.1406 70.6548 48.1392 73.4638 48.1392C75.9844 48.1392 77.7891 46.5185 77.7891 43.8935V42.6705H73.6577V44.1122H76.0043C75.9744 45.5639 75.005 46.4837 73.4737 46.4837C71.7685 46.4837 70.6001 45.206 70.6001 42.8991C70.6001 40.6072 71.7884 39.3345 73.4339 39.3345C74.6619 39.3345 75.4972 39.9908 75.8253 41.0696ZM82.824 48.1491C85.0613 48.1491 86.4831 46.5732 86.4831 44.2116C86.4831 41.8452 85.0613 40.2642 82.824 40.2642C80.5868 40.2642 79.165 41.8452 79.165 44.2116C79.165 46.5732 80.5868 48.1491 82.824 48.1491ZM82.834 46.7074C81.5961 46.7074 80.9895 45.6037 80.9895 44.2067C80.9895 42.8097 81.5961 41.6911 82.834 41.6911C84.052 41.6911 84.6586 42.8097 84.6586 44.2067C84.6586 45.6037 84.052 46.7074 82.834 46.7074ZM91.3416 48.1491C93.5788 48.1491 95.0007 46.5732 95.0007 44.2116C95.0007 41.8452 93.5788 40.2642 91.3416 40.2642C89.1044 40.2642 87.6825 41.8452 87.6825 44.2116C87.6825 46.5732 89.1044 48.1491 91.3416 48.1491ZM91.3516 46.7074C90.1136 46.7074 89.5071 45.6037 89.5071 44.2067C89.5071 42.8097 90.1136 41.6911 91.3516 41.6911C92.5696 41.6911 93.1761 42.8097 93.1761 44.2067C93.1761 45.6037 92.5696 46.7074 91.3516 46.7074ZM99.8493 51.0227C101.912 51.0227 103.434 50.0781 103.434 48.1243V40.3636H101.659V41.6264H101.559C101.286 41.0746 100.714 40.2642 99.367 40.2642C97.6021 40.2642 96.215 41.6463 96.215 44.157C96.215 46.6477 97.6021 47.8906 99.362 47.8906C100.67 47.8906 101.281 47.1896 101.559 46.6278H101.649V48.0746C101.649 49.1982 100.903 49.6605 99.8791 49.6605C98.7953 49.6605 98.318 49.1484 98.0993 48.701L96.4785 49.0938C96.8066 50.1626 97.9054 51.0227 99.8493 51.0227ZM99.8642 46.4787C98.676 46.4787 98.0495 45.554 98.0495 44.147C98.0495 42.7599 98.666 41.7408 99.8642 41.7408C101.023 41.7408 101.659 42.7003 101.659 44.147C101.659 45.6037 101.013 46.4787 99.8642 46.4787ZM107.078 37.8182H105.278V48H107.078V37.8182ZM112.309 48.1491C114.089 48.1491 115.312 47.2791 115.63 45.9517L113.95 45.7628C113.706 46.4091 113.11 46.7472 112.334 46.7472C111.171 46.7472 110.4 45.9815 110.385 44.674H115.705V44.1222C115.705 41.4425 114.094 40.2642 112.215 40.2642C110.027 40.2642 108.6 41.87 108.6 44.2266C108.6 46.6229 110.007 48.1491 112.309 48.1491ZM110.39 43.4609C110.445 42.4865 111.166 41.6662 112.24 41.6662C113.274 41.6662 113.97 42.4219 113.98 43.4609H110.39ZM120.78 48H122.624V44.5597H124.573C126.925 44.5597 128.187 43.1477 128.187 41.1889C128.187 39.245 126.939 37.8182 124.598 37.8182H120.78V48ZM122.624 43.0433V39.3594H124.314C125.697 39.3594 126.308 40.1051 126.308 41.1889C126.308 42.2727 125.697 43.0433 124.324 43.0433H122.624ZM131.51 37.8182H129.71V48H131.51V37.8182ZM135.558 48.1541C136.756 48.1541 137.472 47.5923 137.8 46.951H137.86V48H139.59V42.8892C139.59 40.8707 137.944 40.2642 136.487 40.2642C134.882 40.2642 133.649 40.9801 133.251 42.3722L134.931 42.6108C135.11 42.0888 135.617 41.6413 136.497 41.6413C137.333 41.6413 137.79 42.0689 137.79 42.8196V42.8494C137.79 43.3665 137.248 43.3913 135.901 43.5355C134.419 43.6946 133.002 44.1371 133.002 45.8572C133.002 47.3587 134.101 48.1541 135.558 48.1541ZM136.025 46.8317C135.274 46.8317 134.737 46.4886 134.737 45.8274C134.737 45.1364 135.339 44.848 136.144 44.7337C136.617 44.669 137.561 44.5497 137.795 44.3608V45.2607C137.795 46.1108 137.109 46.8317 136.025 46.8317ZM142.244 50.8636C143.646 50.8636 144.457 50.1428 144.889 48.9247L147.957 40.3736L146.033 40.3636L144.268 46.1307H144.188L142.428 40.3636H140.519L143.289 48.1591L143.134 48.5717C142.801 49.4418 142.274 49.5014 141.489 49.2727L141.071 50.6747C141.315 50.7741 141.752 50.8636 142.244 50.8636Z" fill="white"/>
<defs>
<clipPath id="clip0_389_2536">
<rect width="32" height="32" fill="white" transform="translate(20 18.5)"/>
</clipPath>
</defs>
</svg>
