<svg width="176" height="69" viewBox="0 0 176 69" fill="none" xmlns="http://www.w3.org/2000/svg">
<rect width="176" height="69" rx="3" fill="#303639"/>
<g clip-path="url(#clip0_389_2531)">
<path d="M49.0558 43.438C48.5891 44.5249 48.0128 45.5614 47.3358 46.5313C46.4305 47.8213 45.6898 48.714 45.1192 49.21C44.2345 50.0233 43.2858 50.4407 42.2705 50.464C41.5418 50.464 40.6632 50.2567 39.6398 49.836C38.6132 49.4173 37.6698 49.2093 36.8072 49.2093C35.9025 49.2093 34.9325 49.4173 33.8945 49.836C32.8552 50.2567 32.0178 50.476 31.3778 50.4973C30.4045 50.5393 29.4338 50.1107 28.4645 49.21C27.8465 48.67 27.0738 47.746 26.1472 46.4367C25.1532 45.038 24.3358 43.4167 23.6958 41.5673C23.0105 39.5707 22.6665 37.6367 22.6665 35.7647C22.6665 33.62 23.1298 31.7707 24.0578 30.2207C24.7878 28.9753 25.7578 27.994 26.9725 27.2727C28.1642 26.5596 29.5239 26.1758 30.9125 26.1607C31.6858 26.1607 32.6998 26.4 33.9605 26.87C35.2172 27.3413 36.0238 27.5807 36.3778 27.5807C36.6418 27.5807 37.5385 27.3007 39.0578 26.7433C40.4952 26.226 41.7078 26.012 42.7012 26.0967C45.3938 26.314 47.4165 27.3753 48.7612 29.2873C46.3538 30.746 45.1625 32.7893 45.1865 35.4107C45.2078 37.4527 45.9485 39.152 47.4045 40.5007C48.0645 41.1273 48.8012 41.6113 49.6205 41.9547C49.4487 42.4552 49.2604 42.9499 49.0558 43.438ZM42.8812 19.1407C42.8812 20.7407 42.2965 22.2353 41.1312 23.618C39.7245 25.2627 38.0238 26.2127 36.1792 26.0627C36.1544 25.8614 36.1419 25.6588 36.1418 25.456C36.1418 23.92 36.8105 22.276 37.9985 20.9313C38.5918 20.2507 39.3452 19.6847 40.2598 19.2333C41.1732 18.7887 42.0358 18.5427 42.8478 18.5C42.8712 18.714 42.8812 18.928 42.8812 19.14V19.1407Z" fill="white"/>
</g>
<path d="M74.4375 21.5H75.4375C75.1406 19.9531 73.8438 18.8906 72.1562 18.8906C70.1055 18.8906 68.6563 20.4688 68.6563 23C68.6563 25.5312 70.0938 27.1094 72.2188 27.1094C74.125 27.1094 75.4844 25.8398 75.4844 23.8594V23H72.4375V23.8594H74.5469C74.5195 25.2969 73.5742 26.2031 72.2188 26.2031C70.7344 26.2031 69.5938 25.0781 69.5938 23C69.5938 20.9219 70.7344 19.7969 72.1562 19.7969C73.3125 19.7969 74.0977 20.4492 74.4375 21.5ZM79.5342 27.125C80.7529 27.125 81.6436 26.5156 81.9248 25.6094L81.0342 25.3594C80.7998 25.9844 80.2568 26.2969 79.5342 26.2969C78.4521 26.2969 77.7061 25.5977 77.6631 24.3125H82.0186V23.9219C82.0186 21.6875 80.6904 20.9219 79.4404 20.9219C77.8154 20.9219 76.7373 22.2031 76.7373 24.0469C76.7373 25.8906 77.7998 27.125 79.5342 27.125ZM77.6631 23.5156C77.7256 22.582 78.3857 21.75 79.4404 21.75C80.4404 21.75 81.0811 22.5 81.0811 23.5156H77.6631ZM86.0303 21H84.749V19.5625H83.8271V21H82.9209V21.7812H83.8271V25.5312C83.8271 26.5781 84.6709 27.0781 85.4521 27.0781C85.7959 27.0781 86.0146 27.0156 86.1396 26.9687L85.9521 26.1406C85.874 26.1562 85.749 26.1875 85.5459 26.1875C85.1396 26.1875 84.749 26.0625 84.749 25.2812V21.7812H86.0303V21ZM90.5107 27H91.4326V21H90.5107V27ZM90.9795 20C91.3389 20 91.6357 19.7188 91.6357 19.375C91.6357 19.0313 91.3389 18.75 90.9795 18.75C90.6201 18.75 90.3232 19.0313 90.3232 19.375C90.3232 19.7188 90.6201 20 90.9795 20ZM95.7305 21H94.4492V19.5625H93.5273V21H92.6211V21.7812H93.5273V25.5312C93.5273 26.5781 94.3711 27.0781 95.1523 27.0781C95.4961 27.0781 95.7148 27.0156 95.8398 26.9687L95.6523 26.1406C95.5742 26.1562 95.4492 26.1875 95.2461 26.1875C94.8398 26.1875 94.4492 26.0625 94.4492 25.2812V21.7812H95.7305V21ZM101.133 23.3906C101.133 22.3437 101.781 21.75 102.664 21.75C103.52 21.75 104.039 22.3086 104.039 23.25V27H104.961V23.1875C104.961 21.6562 104.145 20.9219 102.93 20.9219C102.023 20.9219 101.461 21.3281 101.18 21.9375H101.102V21H100.211V27H101.133V23.3906ZM109.083 27.125C110.708 27.125 111.802 25.8906 111.802 24.0312C111.802 22.1562 110.708 20.9219 109.083 20.9219C107.458 20.9219 106.364 22.1562 106.364 24.0312C106.364 25.8906 107.458 27.125 109.083 27.125ZM109.083 26.2969C107.849 26.2969 107.286 25.2344 107.286 24.0312C107.286 22.8281 107.849 21.75 109.083 21.75C110.317 21.75 110.88 22.8281 110.88 24.0312C110.88 25.2344 110.317 26.2969 109.083 26.2969ZM114.364 27H115.271L116.583 22.3906H116.677L117.989 27H118.896L120.724 21H119.755L118.458 25.5781H118.396L117.13 21H116.146L114.864 25.5938H114.802L113.505 21H112.536L114.364 27Z" fill="white"/>
<path d="M70.3118 48L71.152 45.4893H74.9801L75.8253 48H77.794L74.2045 37.8182H71.9276L68.343 48H70.3118ZM71.6491 44.0078L73.0263 39.9062H73.1058L74.483 44.0078H71.6491ZM79.0556 50.8636H80.8553V46.7969H80.9299C81.2132 47.3537 81.8049 48.1342 83.1174 48.1342C84.9171 48.1342 86.2644 46.7074 86.2644 44.1918C86.2644 41.6463 84.8773 40.2642 83.1124 40.2642C81.7651 40.2642 81.2033 41.0746 80.9299 41.6264H80.8255V40.3636H79.0556V50.8636ZM80.8205 44.1818C80.8205 42.7003 81.4569 41.7408 82.6152 41.7408C83.8134 41.7408 84.4299 42.7599 84.4299 44.1818C84.4299 45.6136 83.8034 46.6577 82.6152 46.6577C81.4668 46.6577 80.8205 45.6634 80.8205 44.1818ZM87.8056 50.8636H89.6053V46.7969H89.6799C89.9632 47.3537 90.5549 48.1342 91.8674 48.1342C93.6671 48.1342 95.0144 46.7074 95.0144 44.1918C95.0144 41.6463 93.6273 40.2642 91.8624 40.2642C90.5151 40.2642 89.9533 41.0746 89.6799 41.6264H89.5755V40.3636H87.8056V50.8636ZM89.5705 44.1818C89.5705 42.7003 90.2069 41.7408 91.3652 41.7408C92.5634 41.7408 93.1799 42.7599 93.1799 44.1818C93.1799 45.6136 92.5534 46.6577 91.3652 46.6577C90.2168 46.6577 89.5705 45.6634 89.5705 44.1818ZM105.641 40.6172H107.416C107.381 38.897 105.915 37.679 103.747 37.679C101.609 37.679 100.003 38.8821 100.008 40.6818C100.008 42.1435 101.047 42.9837 102.723 43.4162L103.881 43.7145C104.98 43.9929 105.706 44.3359 105.711 45.1264C105.706 45.9964 104.881 46.5781 103.677 46.5781C102.524 46.5781 101.629 46.0611 101.555 44.9922H99.7399C99.8145 47.0156 101.321 48.1541 103.692 48.1541C106.133 48.1541 107.55 46.9361 107.555 45.1413C107.55 43.3764 106.094 42.571 104.562 42.2081L103.608 41.9695C102.773 41.7706 101.868 41.4176 101.878 40.5675C101.883 39.8018 102.569 39.2401 103.722 39.2401C104.821 39.2401 105.547 39.7521 105.641 40.6172ZM112.933 40.3636H111.427V38.5341H109.627V40.3636H108.543V41.7557H109.627V46.0014C109.617 47.4382 110.661 48.1442 112.013 48.1044C112.526 48.0895 112.879 47.9901 113.072 47.9254L112.769 46.5185C112.67 46.5433 112.466 46.5881 112.242 46.5881C111.79 46.5881 111.427 46.429 111.427 45.7031V41.7557H112.933V40.3636ZM117.687 48.1491C119.925 48.1491 121.346 46.5732 121.346 44.2116C121.346 41.8452 119.925 40.2642 117.687 40.2642C115.45 40.2642 114.028 41.8452 114.028 44.2116C114.028 46.5732 115.45 48.1491 117.687 48.1491ZM117.697 46.7074C116.459 46.7074 115.853 45.6037 115.853 44.2067C115.853 42.8097 116.459 41.6911 117.697 41.6911C118.915 41.6911 119.522 42.8097 119.522 44.2067C119.522 45.6037 118.915 46.7074 117.697 46.7074ZM122.874 48H124.674V43.5107C124.674 42.5412 125.404 41.8551 126.394 41.8551C126.697 41.8551 127.075 41.9098 127.229 41.9595V40.304C127.065 40.2741 126.782 40.2543 126.583 40.2543C125.708 40.2543 124.977 40.7514 124.699 41.6364H124.619V40.3636H122.874V48ZM131.491 48.1491C133.271 48.1491 134.494 47.2791 134.812 45.9517L133.132 45.7628C132.888 46.4091 132.291 46.7472 131.516 46.7472C130.352 46.7472 129.582 45.9815 129.567 44.674H134.887V44.1222C134.887 41.4425 133.276 40.2642 131.396 40.2642C129.209 40.2642 127.782 41.87 127.782 44.2266C127.782 46.6229 129.189 48.1491 131.491 48.1491ZM129.572 43.4609C129.627 42.4865 130.347 41.6662 131.421 41.6662C132.455 41.6662 133.151 42.4219 133.161 43.4609H129.572Z" fill="white"/>
<defs>
<clipPath id="clip0_389_2531">
<rect width="32" height="32" fill="white" transform="translate(20 18.5)"/>
</clipPath>
</defs>
</svg>
